<?xml version="1.0" encoding="UTF-8" standalone="no"?>
<svg
   xmlns:dc="http://purl.org/dc/elements/1.1/"
   xmlns:cc="http://creativecommons.org/ns#"
   xmlns:rdf="http://www.w3.org/1999/02/22-rdf-syntax-ns#"
   xmlns:svg="http://www.w3.org/2000/svg"
   xmlns="http://www.w3.org/2000/svg"
   xmlns:sodipodi="http://sodipodi.sourceforge.net/DTD/sodipodi-0.dtd"
   xmlns:inkscape="http://www.inkscape.org/namespaces/inkscape"
   version="1.1"
   id="Layer_1"
   x="0px"
   y="0px"
   width="120"
   height="120"
   viewBox="0 0 120 120"
   enable-background="new 0 0 100 100"
   xml:space="preserve"
   inkscape:version="0.48.3.1 r9886"
   sodipodi:docname="purse-thief.svg"><metadata
   id="metadata13"><rdf:RDF><cc:Work
       rdf:about=""><dc:format>image/svg+xml</dc:format><dc:type
         rdf:resource="http://purl.org/dc/dcmitype/StillImage" /></cc:Work></rdf:RDF></metadata><defs
   id="defs11">
	
	
</defs><sodipodi:namedview
   pagecolor="#ffffff"
   bordercolor="#666666"
   borderopacity="1"
   objecttolerance="10"
   gridtolerance="10"
   guidetolerance="10"
   inkscape:pageopacity="0"
   inkscape:pageshadow="2"
   inkscape:window-width="1301"
   inkscape:window-height="744"
   id="namedview9"
   showgrid="false"
   inkscape:zoom="2.36"
   inkscape:cx="50"
   inkscape:cy="50"
   inkscape:window-x="65"
   inkscape:window-y="24"
   inkscape:window-maximized="1"
   inkscape:current-layer="Layer_1"
   inkscape:showpageshadow="false" />

<g
   id="g2983"
   transform="translate(9.8834954,-8.9433886)"><path
     style="fill:#efede9;fill-opacity:1;stroke:none"
     d="M 99.541,51.935 C 98.685,49.233 96.506,47.512 94.668,48.093 L 78.807,53.1 73.415,37.856 C 73.352,37.68 73.257,37.529 73.164,37.387 73.15,37.376 73.142,37.376 73.142,37.372 73.112,37.317 73.067,37.268 73.028,37.214 72.775,36.869 72.471,36.565 72.104,36.369 L 51.067,25.373 c -0.431,-0.219 -0.904,-0.312 -1.383,-0.288 -0.515,-0.02 -1.017,0.088 -1.449,0.343 L 28.35,37.249 c -0.771,0.456 -1.209,1.301 -1.328,2.31 -0.29,-0.032 -0.583,-0.052 -0.881,-0.052 -3.736,0 -6.854,2.559 -7.735,6.014 L 17.232,44.294 C 14.353,41.263 9.552,41.15 6.526,44.034 L 2.464,47.907 C -0.563,50.79 -0.675,55.587 2.2,58.614 l 11.537,12.1 c 2.879,3.026 7.677,3.143 10.706,0.263 l 4.063,-3.871 c 3.027,-2.89 3.151,-7.681 0.264,-10.712 l -1.027,-1.085 c 3.634,-0.743 6.365,-3.961 6.365,-7.821 0,-0.556 -0.057,-1.098 -0.165,-1.621 l 15.991,-9.507 4.033,2.112 -18.958,20.142 c -1.901,2.021 -0.569,5.19 -0.569,5.19 l -4.477,24.649 c -0.035,0.034 -0.064,0.063 -0.094,0.104 l -17.765,21.565 c -1.486,1.8 -0.606,4.963 1.938,7.069 2.555,2.104 5.832,2.346 7.308,0.549 L 39.11,96.171 c 0.318,-0.383 0.514,-0.823 0.622,-1.307 0.146,-0.289 0.249,-0.591 0.302,-0.914 l 4.01,-22.067 c 0.01,0 0.01,0 0.01,0 l 7.88,11.646 -13.807,16.806 c -1.486,1.799 -0.616,4.968 1.936,7.07 2.557,2.096 5.833,2.336 7.309,0.542 L 63.784,87.986 c 0.513,-0.48 0.943,-1.009 1.267,-1.551 l 0.063,-0.073 c 0.45,-0.538 0.679,-1.203 0.713,-1.916 0.147,-0.909 0.01,-1.78 -0.483,-2.488 l -0.26,-0.391 c -0.199,-0.362 -0.439,-0.72 -0.723,-1.058 l -9.441,-13.94 13,-13.803 2.815,7.964 c 0.02,0.093 0.039,0.181 0.073,0.27 0.848,2.708 3.036,4.429 4.881,3.842 l 22.072,-6.961 c 1.834,-0.583 2.64,-3.241 1.78,-5.946 z m -73.422,1.476 c -3.274,0 -5.945,-2.658 -5.945,-5.949 0,-3.285 2.671,-5.944 5.945,-5.944 0.363,0 0.718,0.037 1.062,0.1 0.163,0.609 0.421,1.23 0.78,1.831 1.026,1.732 2.592,2.812 4.012,2.946 0.062,0.347 0.101,0.702 0.101,1.067 0,3.291 -2.653,5.949 -5.955,5.949 z"
     id="path5"
     inkscape:connector-curvature="0" /><path
     style="fill:#efede9;fill-opacity:1"
     d="m 74.091,25.896 c -0.657,1.252 -1.033,2.675 -1.033,4.187 0,4.986 4.033,9.029 9.016,9.029 2.671,0 5.063,-1.165 6.718,-3.007 0.899,0.013 1.836,-0.477 2.408,-1.375 0.732,-1.148 0.623,-2.561 -0.191,-3.378 0.059,-0.416 0.1,-0.838 0.1,-1.27 0,-4.98 -4.044,-9.024 -9.034,-9.024 -2.589,0 -4.915,1.098 -6.559,2.845 -0.645,-0.928 -1.401,-2.119 -0.933,-2.845 0,0 -2.258,0.525 -1.278,2.769 0.055,0.126 0.119,0.218 0.179,0.329 -0.099,0.031 -0.186,0.044 -0.288,0.084 -2.279,0.894 -1.054,2.861 -1.054,2.861 0.144,-0.666 1.033,-0.997 1.949,-1.205 z"
     id="path7"
     inkscape:connector-curvature="0" /></g></svg>